<svg width="128" height="33" viewBox="0 0 128 33" fill="none" xmlns="http://www.w3.org/2000/svg">
<path d="M20.1211 5.32031C20.0273 5.47656 19.957 5.64062 19.9102 5.8125C19.8789 5.98438 19.8555 6.15625 19.8398 6.32812H19.6758C19.5508 6.32812 19.4414 6.3125 19.3477 6.28125C19.2539 6.23438 19.1445 6.19531 19.0195 6.16406C19.082 6.75781 19.1211 7.35938 19.1367 7.96875C19.1523 8.57812 19.1602 9.17969 19.1602 9.77344C19.1602 10.5234 19.1523 11.2734 19.1367 12.0234C19.1211 12.7578 19.1133 13.5 19.1133 14.25C19.1133 14.6094 19.0898 14.9688 19.043 15.3281C19.0117 15.6719 18.918 16.0078 18.7617 16.3359C18.793 16.6016 18.8164 16.8594 18.832 17.1094C18.8477 17.3438 18.8555 17.5938 18.8555 17.8594C18.8555 18.5938 18.8086 19.3281 18.7148 20.0625C18.6367 20.7812 18.5352 21.5 18.4102 22.2188C18.3633 22.5 18.3164 22.7891 18.2695 23.0859C18.2383 23.3672 18.1836 23.6406 18.1055 23.9062C18.0742 23.9844 18.0273 24.0625 17.9648 24.1406C17.918 24.2188 17.8789 24.2969 17.8477 24.375C17.6602 24.7812 17.4492 25.1875 17.2148 25.5938C16.9961 25.9844 16.7305 26.3438 16.418 26.6719C16.1836 26.6875 15.957 26.75 15.7383 26.8594C15.5195 26.9688 15.3164 27.0234 15.1289 27.0234C14.957 27.0234 14.8164 26.9375 14.707 26.7656L14.4727 26.8594C14.3945 26.8906 14.3086 26.9141 14.2148 26.9297C13.6836 26.7109 13.1758 26.4453 12.6914 26.1328C12.2227 25.8203 11.832 25.4141 11.5195 24.9141H11.4258C11.2852 24.9141 11.1836 24.8828 11.1211 24.8203C11.043 24.7422 10.957 24.6484 10.8633 24.5391C10.7852 24.4141 10.7148 24.3047 10.6523 24.2109C10.4648 23.9141 10.2617 23.6172 10.043 23.3203C9.82422 23.0234 9.56641 22.7734 9.26953 22.5703C9.14453 22.1016 8.95703 21.7031 8.70703 21.375C8.45703 21.0312 8.19922 20.6641 7.93359 20.2734C7.73047 19.4922 7.35547 18.7656 6.80859 18.0938C6.88672 18.0156 6.92578 17.9609 6.92578 17.9297C6.92578 17.8516 6.89453 17.7891 6.83203 17.7422C6.78516 17.6797 6.76172 17.6172 6.76172 17.5547C6.76172 17.4922 6.77734 17.4453 6.80859 17.4141C6.60547 17.1953 6.43359 16.9531 6.29297 16.6875C6.16797 16.4062 6.04297 16.125 5.91797 15.8438C5.80859 15.5625 5.68359 15.2812 5.54297 15C5.41797 14.7188 5.26172 14.4609 5.07422 14.2266C4.90234 14.3359 4.79297 14.4688 4.74609 14.625C4.71484 14.7812 4.69922 14.9453 4.69922 15.1172C4.69922 15.2422 4.69922 15.3672 4.69922 15.4922C4.71484 15.6172 4.72266 15.7422 4.72266 15.8672C4.72266 16.1797 4.68359 16.4844 4.60547 16.7812C4.54297 17.0781 4.49609 17.3828 4.46484 17.6953C4.44922 17.9141 4.44141 18.1562 4.44141 18.4219C4.45703 18.6875 4.44922 18.9531 4.41797 19.2188C4.40234 19.4844 4.36328 19.7422 4.30078 19.9922C4.23828 20.2422 4.12891 20.4531 3.97266 20.625C3.87891 21.5156 3.76172 22.4062 3.62109 23.2969C3.48047 24.1875 3.34766 25.0781 3.22266 25.9688C3.19141 26.125 3.16016 26.3203 3.12891 26.5547C3.09766 26.7891 3.05859 27.0234 3.01172 27.2578C2.98047 27.5078 2.94922 27.7422 2.91797 27.9609C2.90234 28.1953 2.89453 28.3828 2.89453 28.5234C2.89453 28.6797 2.93359 28.8281 3.01172 28.9688C3.08984 29.125 3.12891 29.2734 3.12891 29.4141C3.12891 29.5234 3.08984 29.5859 3.01172 29.6016C2.94922 29.6328 2.91016 29.6953 2.89453 29.7891C3.00391 30.1328 3.05859 30.5234 3.05859 30.9609C3.05859 31.0859 3.05078 31.2109 3.03516 31.3359C3.01953 31.4766 2.99609 31.6094 2.96484 31.7344C2.93359 31.8125 2.87891 31.8828 2.80078 31.9453C2.72266 32.0234 2.68359 32.0938 2.68359 32.1562C2.68359 32.2188 2.71484 32.2656 2.77734 32.2969C2.68359 32.3906 2.56641 32.4531 2.42578 32.4844C2.28516 32.5156 2.18359 32.6016 2.12109 32.7422C1.96484 32.6172 1.80859 32.5 1.65234 32.3906C1.49609 32.2969 1.34766 32.1875 1.20703 32.0625L1.13672 32.0391C1.02734 32.0391 0.933594 32.0703 0.855469 32.1328C0.792969 32.2109 0.707031 32.25 0.597656 32.25C0.566406 32.25 0.535156 32.2422 0.503906 32.2266C0.488281 32.2266 0.464844 32.2266 0.433594 32.2266L0.292969 31.6172C0.246094 31.4141 0.183594 31.2266 0.105469 31.0547C0.230469 30.7266 0.308594 30.3516 0.339844 29.9297C0.386719 29.5234 0.433594 29.1094 0.480469 28.6875C0.527344 28.2656 0.597656 27.8594 0.691406 27.4688C0.785156 27.0938 0.957031 26.7656 1.20703 26.4844C1.20703 26.3594 1.16016 26.2734 1.06641 26.2266C0.988281 26.1797 0.949219 26.0781 0.949219 25.9219C0.949219 25.8906 0.957031 25.8359 0.972656 25.7578C1.00391 25.6797 1.02734 25.5938 1.04297 25.5C1.07422 25.4062 1.09766 25.3203 1.11328 25.2422C1.14453 25.1484 1.16797 25.0781 1.18359 25.0312C1.30859 24.4219 1.40234 23.7969 1.46484 23.1562C1.54297 22.5156 1.73828 21.9219 2.05078 21.375C2.03516 21.3125 2.02734 21.2188 2.02734 21.0938C2.02734 20.8281 2.05078 20.5703 2.09766 20.3203C2.16016 20.0703 2.19141 19.8125 2.19141 19.5469C2.19141 19.3281 2.16797 19.125 2.12109 18.9375C2.16797 18.7656 2.23047 18.6016 2.30859 18.4453C2.40234 18.2734 2.44922 18.1016 2.44922 17.9297C2.44922 17.7734 2.39453 17.6641 2.28516 17.6016C2.36328 17.5391 2.41016 17.4688 2.42578 17.3906C2.45703 17.3125 2.47266 17.2344 2.47266 17.1562C2.48828 17.0781 2.50391 17.0078 2.51953 16.9453C2.55078 16.8672 2.61328 16.8047 2.70703 16.7578C2.69141 16.6016 2.67578 16.4531 2.66016 16.3125C2.66016 16.1719 2.66016 16.0234 2.66016 15.8672C2.66016 15.2891 2.69141 14.7188 2.75391 14.1562C2.81641 13.5781 2.84766 12.9922 2.84766 12.3984C2.84766 11.8203 2.80078 11.2578 2.70703 10.7109L2.96484 10.1953C2.80859 10.0703 2.70703 9.86719 2.66016 9.58594C2.61328 9.30469 2.58203 9 2.56641 8.67188C2.55078 8.34375 2.51953 8.02344 2.47266 7.71094C2.44141 7.38281 2.35547 7.11719 2.21484 6.91406V6.70312C2.21484 6.45312 2.19922 6.21094 2.16797 5.97656C2.13672 5.74219 2.12109 5.50781 2.12109 5.27344V5.0625C2.19922 5.03125 2.25391 4.97656 2.28516 4.89844C2.33203 4.82031 2.36328 4.74219 2.37891 4.66406H2.47266C2.66016 4.66406 2.84766 4.64844 3.03516 4.61719C3.22266 4.58594 3.41016 4.57031 3.59766 4.57031H3.90234C4.08984 4.71094 4.25391 4.875 4.39453 5.0625C4.53516 5.25 4.70703 5.42188 4.91016 5.57812V6C5.05078 6.1875 5.16016 6.39062 5.23828 6.60938C5.31641 6.82812 5.39453 7.05469 5.47266 7.28906C5.56641 7.52344 5.66016 7.75 5.75391 7.96875C5.84766 8.1875 5.98047 8.375 6.15234 8.53125C6.12109 8.6875 6.10547 8.8125 6.10547 8.90625C6.10547 9.10938 6.12109 9.3125 6.15234 9.51562C6.19922 9.71875 6.23047 9.91406 6.24609 10.1016C6.30859 10.1797 6.36328 10.2812 6.41016 10.4062C6.45703 10.5156 6.53516 10.5859 6.64453 10.6172C6.72266 11.2266 6.87891 11.8047 7.11328 12.3516C7.36328 12.8984 7.54297 13.4688 7.65234 14.0625C7.77734 14.1875 7.87109 14.3438 7.93359 14.5312C7.99609 14.7031 8.05859 14.875 8.12109 15.0469C8.19922 15.2188 8.27734 15.3828 8.35547 15.5391C8.44922 15.6797 8.58203 15.7812 8.75391 15.8438C8.84766 16.2188 8.96484 16.5938 9.10547 16.9688C9.24609 17.3438 9.46484 17.6641 9.76172 17.9297C9.76172 18.2422 9.80859 18.5156 9.90234 18.75C10.0117 18.9688 10.1289 19.1797 10.2539 19.3828C10.3945 19.5703 10.5195 19.7578 10.6289 19.9453C10.7383 20.1328 10.8086 20.3359 10.8398 20.5547C11.0586 20.8828 11.3086 21.1875 11.5898 21.4688C11.8867 21.75 12.1836 22.0234 12.4805 22.2891C12.793 22.5391 13.0977 22.7969 13.3945 23.0625C13.6914 23.3281 13.9648 23.6094 14.2148 23.9062C14.3867 23.9219 14.5273 23.9609 14.6367 24.0234C14.7617 24.0703 14.9023 24.1094 15.0586 24.1406C15.168 24.0625 15.2539 23.9688 15.3164 23.8594C15.3945 23.7344 15.4648 23.6094 15.5273 23.4844C15.5898 23.3594 15.6523 23.2422 15.7148 23.1328C15.793 23.0078 15.8867 22.8984 15.9961 22.8047C15.9961 22.7734 15.9883 22.75 15.9727 22.7344C15.9727 22.7031 15.9727 22.6719 15.9727 22.6406C15.9727 22.4688 15.9961 22.3359 16.043 22.2422C16.1055 22.1328 16.1758 22.0156 16.2539 21.8906V21.2812C16.3789 21.0469 16.4648 20.7969 16.5117 20.5312C16.5586 20.2656 16.582 20 16.582 19.7344C16.582 19.5156 16.5742 19.2969 16.5586 19.0781C16.543 18.8438 16.5352 18.6094 16.5352 18.375C16.5352 18.2344 16.543 18.0938 16.5586 17.9531C16.5742 17.7969 16.6055 17.6562 16.6523 17.5312C16.6836 17.5 16.7383 17.4531 16.8164 17.3906C16.8945 17.3125 16.9336 17.2656 16.9336 17.25C16.9336 17.1719 16.9102 17.0938 16.8633 17.0156C16.8164 16.9375 16.793 16.8594 16.793 16.7812C16.793 16.6719 16.8398 16.5859 16.9336 16.5234V16.3828C16.9336 16.3047 16.918 16.2344 16.8867 16.1719C16.8711 16.0938 16.8242 16.0391 16.7461 16.0078C16.8242 15.9141 16.8789 15.8047 16.9102 15.6797C16.9414 15.5391 16.957 15.3984 16.957 15.2578C16.9727 15.1016 16.9727 14.9531 16.957 14.8125C16.957 14.6719 16.957 14.5391 16.957 14.4141C16.957 14.2734 16.9648 14.125 16.9805 13.9688C16.9961 13.8125 17.0586 13.6797 17.168 13.5703C17.1211 13.3828 17.0898 13.2031 17.0742 13.0312C17.0586 12.8438 17.0508 12.6562 17.0508 12.4688C17.0508 12.1406 17.0664 11.8125 17.0977 11.4844C17.1289 11.1562 17.1445 10.8203 17.1445 10.4766C17.1445 10.3516 17.1367 10.2266 17.1211 10.1016C17.1055 9.96094 17.0977 9.82812 17.0977 9.70312C17.0977 9.57812 17.1211 9.52344 17.168 9.53906C17.2305 9.53906 17.2617 9.5 17.2617 9.42188C17.2617 9.3125 17.2461 9.20312 17.2148 9.09375C17.1992 8.98438 17.1836 8.875 17.168 8.76562C17.1367 8.5 17.1133 8.23438 17.0977 7.96875C17.082 7.6875 17.0742 7.40625 17.0742 7.125C17.0742 6.95312 17.0742 6.78125 17.0742 6.60938C17.0898 6.42188 17.1211 6.24219 17.168 6.07031C17.0742 5.92969 17.0117 5.79688 16.9805 5.67188C16.9648 5.53125 16.9492 5.40625 16.9336 5.29688L16.8867 4.94531C16.8711 4.82031 16.8242 4.69531 16.7461 4.57031C16.7305 4.55469 16.7227 4.50781 16.7227 4.42969C16.7227 4.30469 16.7539 4.21094 16.8164 4.14844C16.7383 3.88281 16.6289 3.625 16.4883 3.375C16.3633 3.125 16.2852 2.85156 16.2539 2.55469C16.082 2.46094 15.9492 2.3125 15.8555 2.10938C15.7773 1.89063 15.7383 1.69531 15.7383 1.52344C15.7383 1.32031 15.793 1.125 15.9023 0.9375C16.0117 0.734375 16.1836 0.632812 16.418 0.632812C16.5117 0.632812 16.5977 0.664062 16.6758 0.726562C16.7695 0.773438 16.8555 0.835938 16.9336 0.914062C17.0273 0.976563 17.1133 1.03906 17.1914 1.10156C17.2852 1.14844 17.3789 1.17188 17.4727 1.17188C17.5352 1.17188 17.6289 1.15625 17.7539 1.125C17.9258 1.35938 18.0977 1.57812 18.2695 1.78125C18.457 1.96875 18.6445 2.16406 18.832 2.36719C18.832 2.63281 18.8789 2.875 18.9727 3.09375C19.0664 3.3125 19.168 3.52344 19.2773 3.72656C19.3867 3.91406 19.4805 4.10156 19.5586 4.28906C19.6523 4.47656 19.6914 4.67969 19.6758 4.89844C19.707 5.00781 19.7695 5.08594 19.8633 5.13281C19.957 5.17969 20.043 5.24219 20.1211 5.32031ZM36.9258 13.4297C36.832 13.5703 36.7773 13.7266 36.7617 13.8984C36.7461 14.0703 36.7383 14.2266 36.7383 14.3672C36.7383 14.5547 36.7383 14.7422 36.7383 14.9297C36.7539 15.1016 36.7617 15.2734 36.7617 15.4453V15.7969C36.7305 15.9062 36.6836 16.0156 36.6211 16.125C36.5586 16.2344 36.5117 16.3438 36.4805 16.4531C36.2617 17.0312 36.1523 17.6094 36.1523 18.1875V18.2344C36.0742 18.4219 35.9961 18.5938 35.918 18.75C35.8555 18.9062 35.793 19.0625 35.7305 19.2188C35.668 19.3594 35.6211 19.5156 35.5898 19.6875C35.5586 19.8438 35.5508 20.0312 35.5664 20.25C35.3477 20.7969 35.0586 21.2969 34.6992 21.75C34.3398 22.1875 33.9883 22.6406 33.6445 23.1094C33.3164 23.2344 33.0117 23.3984 32.7305 23.6016C32.4648 23.8047 32.207 24.0312 31.957 24.2812C31.4727 24.4375 30.9961 24.6172 30.5273 24.8203C30.0586 25.0234 29.6367 25.2969 29.2617 25.6406C28.9648 25.6719 28.668 25.7188 28.3711 25.7812C28.0742 25.8438 27.7852 25.9375 27.5039 26.0625H27.2227C27.082 26.0625 26.9805 26.0312 26.918 25.9688C26.7148 26.0781 26.5039 26.1562 26.2852 26.2031C26.0664 26.2344 25.8477 26.25 25.6289 26.25C25.3477 26.25 25.0664 26.2344 24.7852 26.2031C24.5195 26.1562 24.2461 26.1094 23.9648 26.0625C23.8086 25.8438 23.5898 25.6797 23.3086 25.5703C23.0273 25.4453 22.7773 25.3281 22.5586 25.2188C22.1055 24.5938 21.7773 23.9922 21.5742 23.4141C21.3711 22.8203 21.1602 22.1562 20.9414 21.4219C20.9727 21.2031 21.0273 20.9922 21.1055 20.7891C21.1836 20.5703 21.2148 20.3359 21.1992 20.0859C21.4805 19.2734 21.8477 18.5391 22.3008 17.8828C22.7695 17.2109 23.3008 16.5703 23.8945 15.9609C23.8945 15.8672 23.9102 15.7891 23.9414 15.7266C23.9883 15.6641 23.9961 15.5703 23.9648 15.4453C23.9805 15.4609 24.0117 15.4688 24.0586 15.4688C24.1836 15.4688 24.2617 15.4375 24.293 15.375C24.3242 15.2969 24.332 15.2109 24.3164 15.1172C24.8789 14.7578 25.3867 14.3438 25.8398 13.875C26.3086 13.4062 26.8398 13.0156 27.4336 12.7031C27.4805 12.5625 27.5586 12.4453 27.668 12.3516C27.7773 12.2578 27.8633 12.1484 27.9258 12.0234C28.4258 11.8828 28.8789 11.6719 29.2852 11.3906C29.6914 11.1094 30.1211 10.8594 30.5742 10.6406C30.8242 10.5 31.0586 10.4062 31.2773 10.3594C31.5117 10.2969 31.7617 10.2344 32.0273 10.1719C32.1211 10.1406 32.207 10.1172 32.2852 10.1016C32.3633 10.0859 32.4492 10.0781 32.543 10.0781C32.8242 10.0781 33.0977 10.1328 33.3633 10.2422C33.6289 10.3359 33.9023 10.3828 34.1836 10.3828C34.2617 10.3828 34.3242 10.3828 34.3711 10.3828C34.4336 10.3672 34.4961 10.3516 34.5586 10.3359C34.8242 10.6641 35.1602 10.9141 35.5664 11.0859C35.6602 11.3203 35.7695 11.5234 35.8945 11.6953C36.0352 11.8672 36.1758 12.0391 36.3164 12.2109C36.457 12.3672 36.582 12.5469 36.6914 12.75C36.8164 12.9375 36.8945 13.1641 36.9258 13.4297ZM34.582 14.6484C34.582 14.5703 34.5742 14.5 34.5586 14.4375C34.4023 14.3906 34.2539 14.3281 34.1133 14.25C33.9727 14.1719 33.8164 14.1328 33.6445 14.1328C33.5352 14.1328 33.4258 14.1562 33.3164 14.2031C33.3008 14.0938 33.2539 14.0156 33.1758 13.9688C33.1133 13.9219 33.0352 13.8828 32.9414 13.8516C32.8633 13.8047 32.7773 13.7734 32.6836 13.7578C32.6055 13.7266 32.5352 13.6797 32.4727 13.6172C32.4258 13.4922 32.3711 13.3672 32.3086 13.2422C32.2617 13.1016 32.168 13 32.0273 12.9375C31.8867 13.0781 31.7227 13.1953 31.5352 13.2891C31.3477 13.3672 31.1523 13.4453 30.9492 13.5234C30.7617 13.6016 30.5742 13.6953 30.3867 13.8047C30.2148 13.9141 30.0664 14.0469 29.9414 14.2031H29.5195C29.4258 14.375 29.293 14.5078 29.1211 14.6016C28.9492 14.6797 28.8008 14.7969 28.6758 14.9531C28.4258 15.0781 28.1914 15.2344 27.9727 15.4219C27.7695 15.5938 27.5664 15.7812 27.3633 15.9844C27.1602 16.1719 26.957 16.3672 26.7539 16.5703C26.5664 16.7734 26.3633 16.9609 26.1445 17.1328C25.9414 17.5703 25.7148 17.9531 25.4648 18.2812C25.2305 18.5938 25.0039 18.9141 24.7852 19.2422C24.582 19.5703 24.4023 19.9297 24.2461 20.3203C24.1055 20.6953 24.0352 21.1641 24.0352 21.7266V21.9609C24.0352 22.0391 24.043 22.1172 24.0586 22.1953C24.2617 22.4141 24.4258 22.6484 24.5508 22.8984C24.6914 23.1484 24.918 23.3281 25.2305 23.4375C25.543 23.5625 25.8711 23.6172 26.2148 23.6016C26.5742 23.5859 26.918 23.625 27.2461 23.7188C27.9961 23.5781 28.7148 23.3516 29.4023 23.0391C30.1055 22.7109 30.7695 22.3203 31.3945 21.8672C31.4883 21.7891 31.5977 21.7109 31.7227 21.6328C31.8477 21.5391 31.9492 21.4453 32.0273 21.3516C32.1055 21.2734 32.168 21.1875 32.2148 21.0938C32.2773 21 32.3398 20.9141 32.4023 20.8359C32.5273 20.6328 32.668 20.4297 32.8242 20.2266C32.9805 20.0234 33.1445 19.8359 33.3164 19.6641C33.3945 19.3203 33.4961 18.9922 33.6211 18.6797C33.7461 18.3516 33.8711 18.0312 33.9961 17.7188C34.1211 17.4062 34.2227 17.0859 34.3008 16.7578C34.3945 16.4297 34.4414 16.0859 34.4414 15.7266C34.4414 15.6484 34.4336 15.5625 34.418 15.4688C34.418 15.375 34.4102 15.2891 34.3945 15.2109C34.5195 15.0391 34.582 14.8516 34.582 14.6484ZM71.4492 21.6328C71.4492 21.9453 71.3945 22.2031 71.2852 22.4062C71.1914 22.5938 71.082 22.8125 70.957 23.0625C70.9258 23.0469 70.8867 23.0391 70.8398 23.0391C70.7461 23.0391 70.6602 23.0625 70.582 23.1094C70.5039 23.1562 70.4258 23.1953 70.3477 23.2266C69.8945 23.7266 69.4258 24.2109 68.9414 24.6797C68.4727 25.1484 67.9492 25.5625 67.3711 25.9219C67.2148 26.0156 67.0586 26.1094 66.9023 26.2031C66.7461 26.2812 66.582 26.3594 66.4102 26.4375C66.3477 26.4688 66.2852 26.5 66.2227 26.5312C66.1758 26.5469 66.1289 26.5703 66.082 26.6016C65.9727 26.6641 65.8555 26.7656 65.7305 26.9062C65.6211 27.0469 65.4883 27.1875 65.332 27.3281C65.1914 27.4844 65.0352 27.6094 64.8633 27.7031C64.6914 27.8125 64.5039 27.8594 64.3008 27.8438C64.1758 27.9219 64.0664 28.0234 63.9727 28.1484C63.8789 28.2734 63.7695 28.3984 63.6445 28.5234C62.9727 28.7578 62.3555 29.0625 61.793 29.4375C61.2461 29.8281 60.6758 30.2031 60.082 30.5625C59.7227 30.7969 59.3633 30.9844 59.0039 31.125C58.9258 31.1562 58.832 31.1797 58.7227 31.1953C58.6289 31.2109 58.5273 31.2344 58.418 31.2656C57.9023 31.3906 57.3789 31.4922 56.8477 31.5703C56.332 31.6484 55.8086 31.6875 55.2773 31.6875C54.6211 31.6875 53.9883 31.6094 53.3789 31.4531C53.3789 31.4062 53.3633 31.375 53.332 31.3594C53.3008 31.3438 53.2617 31.3281 53.2148 31.3125C53.1836 31.2969 53.1523 31.2734 53.1211 31.2422C53.0898 31.2266 53.0898 31.1875 53.1211 31.125C52.7773 31.0938 52.4727 31.0078 52.207 30.8672C51.957 30.7266 51.793 30.4766 51.7148 30.1172C51.668 30.1484 51.6289 30.1875 51.5977 30.2344C51.5664 30.2812 51.5117 30.2969 51.4336 30.2812C51.2148 29.9688 50.9727 29.6797 50.707 29.4141C50.4414 29.1484 50.2461 28.8281 50.1211 28.4531C50.0898 28.375 50.0664 28.2969 50.0508 28.2188C50.0508 28.1562 50.043 28.0859 50.0273 28.0078C49.9492 27.7891 49.8086 27.6797 49.6055 27.6797C49.6367 27.6172 49.6523 27.5391 49.6523 27.4453C49.6523 27.3984 49.6445 27.3516 49.6289 27.3047C49.6289 27.2578 49.6289 27.2109 49.6289 27.1641C49.6289 27.0859 49.6523 27.0078 49.6992 26.9297C49.543 26.5703 49.4336 26.2188 49.3711 25.875C49.3086 25.5156 49.2773 25.1484 49.2773 24.7734C49.2773 24.2891 49.3008 23.8125 49.3477 23.3438C49.3945 22.8594 49.418 22.375 49.418 21.8906C49.5117 21.7031 49.582 21.4844 49.6289 21.2344C49.6914 20.9844 49.793 20.7812 49.9336 20.625C49.918 20.5312 49.8867 20.4844 49.8398 20.4844C49.793 20.4688 49.7695 20.4219 49.7695 20.3438C49.7695 20.0625 49.8242 19.7578 49.9336 19.4297C50.043 19.1016 50.0977 18.7656 50.0977 18.4219C50.2383 18.3438 50.3242 18.2266 50.3555 18.0703C50.4023 17.9141 50.4883 17.7891 50.6133 17.6953V17.5781C50.6133 17.3438 50.6367 17.1094 50.6836 16.875C50.7461 16.6406 50.8008 16.4141 50.8477 16.1953C50.9102 15.9609 50.957 15.7344 50.9883 15.5156C51.0352 15.2812 51.0508 15.0547 51.0352 14.8359C51.0664 14.7891 51.1055 14.7031 51.1523 14.5781C51.2148 14.4375 51.2695 14.2969 51.3164 14.1562C51.3789 14 51.4258 13.8516 51.457 13.7109C51.5039 13.5703 51.5273 13.4688 51.5273 13.4062C51.5273 13.3125 51.5117 13.2266 51.4805 13.1484C51.4492 13.0703 51.4336 12.9844 51.4336 12.8906C51.4336 12.8125 51.457 12.7031 51.5039 12.5625C51.5508 12.4062 51.5898 12.2812 51.6211 12.1875C51.6836 11.9219 51.7383 11.6484 51.7852 11.3672C51.8477 11.0703 51.9023 10.7891 51.9492 10.5234C52.0898 9.66406 52.1914 8.80469 52.2539 7.94531C52.3164 7.07031 52.3555 6.19531 52.3711 5.32031C52.5898 5.19531 52.8164 5.07812 53.0508 4.96875C53.3008 4.85938 53.5586 4.80469 53.8242 4.80469C53.9023 4.80469 53.9805 4.8125 54.0586 4.82812C54.1367 4.84375 54.2148 4.86719 54.293 4.89844C54.3711 5.21094 54.4961 5.46094 54.668 5.64844C54.8398 5.83594 54.9961 6.0625 55.1367 6.32812C55.043 6.57812 54.9805 6.83594 54.9492 7.10156L54.8789 7.89844C54.8633 8.16406 54.832 8.42969 54.7852 8.69531C54.7383 8.94531 54.6602 9.1875 54.5508 9.42188C54.582 9.5 54.5977 9.57812 54.5977 9.65625V9.89062C54.5977 10.1094 54.5742 10.3203 54.5273 10.5234C54.4961 10.7266 54.457 10.9375 54.4102 11.1562C54.3633 11.3594 54.3242 11.5625 54.293 11.7656C54.2617 11.9688 54.2617 12.1719 54.293 12.375C54.2461 12.4531 54.1992 12.5156 54.1523 12.5625C54.1055 12.5938 54.0742 12.6484 54.0586 12.7266L54.0117 13.1719C53.9805 13.3438 53.9492 13.5156 53.918 13.6875C53.9023 13.8438 53.8789 14.0078 53.8477 14.1797C53.7383 14.6484 53.6133 15.1172 53.4727 15.5859C53.3477 16.0547 53.2852 16.5391 53.2852 17.0391V17.1797C53.1445 17.3984 53.0352 17.6719 52.957 18C52.8789 18.3125 52.8555 18.6016 52.8867 18.8672C52.7148 19.3203 52.5508 19.7656 52.3945 20.2031C52.2383 20.6406 52.1602 21.0938 52.1602 21.5625C52.1602 21.6406 52.1602 21.7266 52.1602 21.8203C52.1758 21.8984 52.1914 21.9766 52.207 22.0547C52.082 22.3672 52.0039 22.6875 51.9727 23.0156C51.9414 23.3281 51.9258 23.6406 51.9258 23.9531C51.9258 24.1719 51.9336 24.4297 51.9492 24.7266C51.9805 25.0078 52.0195 25.3047 52.0664 25.6172C52.1289 25.9141 52.1992 26.2031 52.2773 26.4844C52.3555 26.7656 52.4414 26.9922 52.5352 27.1641C52.8945 27.7422 53.3633 28.1953 53.9414 28.5234C54.5352 28.8672 55.1602 29.0859 55.8164 29.1797C56.082 29.0859 56.293 29.0312 56.4492 29.0156C56.6211 29 56.8555 29 57.1523 29.0156C57.4023 28.8906 57.6523 28.7969 57.9023 28.7344C58.168 28.6719 58.4336 28.6016 58.6992 28.5234C58.7773 28.4922 58.8555 28.4609 58.9336 28.4297C59.0273 28.3984 59.1055 28.3672 59.168 28.3359C59.2461 28.3047 59.332 28.2344 59.4258 28.125C59.5195 28.0156 59.6055 27.9219 59.6836 27.8438C60.0117 27.75 60.3242 27.6172 60.6211 27.4453C60.918 27.2891 61.207 27.125 61.4883 26.9531L62.3555 26.4375C62.6523 26.2656 62.9648 26.1172 63.293 25.9922C63.418 25.9453 63.4883 25.8828 63.5039 25.8047C63.5352 25.7109 63.582 25.6016 63.6445 25.4766C63.6758 25.5078 63.7227 25.5234 63.7852 25.5234C63.9727 25.5234 64.1055 25.4688 64.1836 25.3594C64.2617 25.2344 64.3555 25.1094 64.4648 24.9844C64.668 24.9531 64.8633 24.8984 65.0508 24.8203C65.2383 24.7266 65.3789 24.5859 65.4727 24.3984C65.8633 24.3203 66.207 24.1797 66.5039 23.9766C66.8008 23.7734 67.0898 23.5547 67.3711 23.3203C67.6523 23.0703 67.9336 22.8359 68.2148 22.6172C68.4961 22.3828 68.8164 22.1953 69.1758 22.0547C69.2227 21.9766 69.2539 21.9062 69.2695 21.8438C69.2852 21.7812 69.3086 21.7109 69.3398 21.6328C69.6055 21.6016 69.8164 21.5312 69.9727 21.4219C70.1289 21.2969 70.3086 21.1719 70.5117 21.0469C70.9492 21.0938 71.2617 21.2891 71.4492 21.6328ZM74.1914 23.7891C74.1133 23.9141 74.0195 24.0312 73.9102 24.1406C73.8008 24.2344 73.6992 24.3359 73.6055 24.4453C73.4961 24.4922 73.3711 24.5156 73.2305 24.5156C73.1055 24.5156 72.9805 24.5156 72.8555 24.5156C72.7461 24.5 72.6367 24.5 72.5273 24.5156C72.4336 24.5156 72.3555 24.5469 72.293 24.6094C72.168 24.5781 72.0742 24.5234 72.0117 24.4453C71.9492 24.3516 71.8398 24.2969 71.6836 24.2812C71.6211 24.2656 71.5586 24.2656 71.4961 24.2812C71.2617 24.0156 71.043 23.7344 70.8398 23.4375C70.6523 23.1406 70.4727 22.8594 70.3008 22.5938C70.2852 22.0156 70.2383 21.4297 70.1602 20.8359C70.1445 20.6953 70.1211 20.5547 70.0898 20.4141C70.0586 20.2734 70.0352 20.1406 70.0195 20.0156C70.0195 19.8594 70.0273 19.7109 70.043 19.5703C70.0742 19.4141 70.0977 19.2734 70.1133 19.1484C70.1758 18.6953 70.2461 18.25 70.3242 17.8125C70.4023 17.375 70.4727 16.9297 70.5352 16.4766C70.5977 16.0703 70.6289 15.6484 70.6289 15.2109C70.6289 14.7578 70.5586 14.3359 70.418 13.9453L70.3945 13.8281C70.4258 13.7031 70.457 13.6016 70.4883 13.5234C70.5352 13.4297 70.5664 13.3281 70.582 13.2188C70.6133 13.0469 70.5742 12.9219 70.4648 12.8438C70.5117 12.7188 70.5898 12.6406 70.6992 12.6094C70.8086 12.5625 70.8711 12.4688 70.8867 12.3281C70.9023 12.2656 70.9023 12.2031 70.8867 12.1406C71.0117 12.0938 71.1367 12.0547 71.2617 12.0234C71.4023 11.9766 71.5352 11.9688 71.6602 12C71.8633 12.0312 72.043 12.1016 72.1992 12.2109C72.3555 12.3047 72.5039 12.4141 72.6445 12.5391C72.8945 13.2891 72.9961 14.0859 72.9492 14.9297C72.9023 15.7578 72.8242 16.5938 72.7148 17.4375C72.6055 18.2812 72.5352 19.1094 72.5039 19.9219C72.4727 20.7188 72.5977 21.4609 72.8789 22.1484L72.9258 22.1719C73.0039 22.1875 73.0664 22.1641 73.1133 22.1016C73.1602 22.0234 73.2227 21.9922 73.3008 22.0078C73.3633 22.0391 73.4023 22.0547 73.418 22.0547C73.4805 22.3672 73.582 22.6641 73.7227 22.9453C73.8633 23.2266 74.0195 23.5078 74.1914 23.7891ZM98.9648 24.0469C98.8867 24.2969 98.8633 24.5469 98.8945 24.7969C98.8477 24.8594 98.793 24.8984 98.7305 24.9141C98.668 24.9297 98.6055 24.9531 98.543 24.9844C98.4805 25 98.4258 25.0312 98.3789 25.0781C98.3477 25.1094 98.3477 25.1797 98.3789 25.2891C97.8633 25.3203 97.3711 25.4297 96.9023 25.6172C96.4336 25.8047 95.9727 26.0078 95.5195 26.2266C95.2852 26.1484 95.082 26.0547 94.9102 25.9453C94.7383 25.8359 94.5195 25.7656 94.2539 25.7344C93.9883 25.2031 93.7383 24.6484 93.5039 24.0703C93.2852 23.4766 93.1758 22.8828 93.1758 22.2891C93.1758 21.8516 93.2539 21.4531 93.4102 21.0938C93.4102 20.625 93.4492 20.1641 93.5273 19.7109C93.6055 19.2578 93.6914 18.8125 93.7852 18.375C93.8945 17.9219 93.9883 17.4688 94.0664 17.0156C94.1445 16.5625 94.1836 16.1016 94.1836 15.6328V15.1172C94.1523 15.1172 94.1133 15.1562 94.0664 15.2344C94.0195 15.2969 93.9727 15.375 93.9258 15.4688C93.8945 15.5469 93.8633 15.625 93.832 15.7031C93.8008 15.7812 93.7773 15.8281 93.7617 15.8438C93.4961 16.0469 93.2852 16.3047 93.1289 16.6172C92.9883 16.9141 92.832 17.1953 92.6602 17.4609C92.4414 17.7891 92.207 18.1094 91.957 18.4219C91.7227 18.7344 91.4258 18.9766 91.0664 19.1484V19.1953C91.0664 19.2734 91.043 19.3281 90.9961 19.3594C90.9492 19.3906 90.9414 19.4688 90.9727 19.5938C90.582 19.7188 90.2148 19.8984 89.8711 20.1328C89.543 20.3672 89.2695 20.6641 89.0508 21.0234C88.7383 21.1016 88.4414 21.2109 88.1602 21.3516C87.8945 21.4766 87.6211 21.6172 87.3398 21.7734C87.2148 21.8359 87.082 21.9141 86.9414 22.0078C86.8008 22.1016 86.6602 22.1641 86.5195 22.1953C86.3945 22.2422 86.2227 22.2734 86.0039 22.2891C85.8008 22.3047 85.582 22.3203 85.3477 22.3359C85.1289 22.3516 84.9102 22.3594 84.6914 22.3594H84.1758C84.0977 22.3594 83.9961 22.3203 83.8711 22.2422C83.7461 22.1641 83.6055 22.0781 83.4492 21.9844C83.3086 21.8906 83.1602 21.8047 83.0039 21.7266C82.8477 21.6328 82.6992 21.5703 82.5586 21.5391C82.4336 21.1328 82.2539 20.7734 82.0195 20.4609C81.8008 20.1328 81.5664 19.8047 81.3164 19.4766C81.2383 19.1016 81.1289 18.7109 80.9883 18.3047C80.8633 17.8984 80.6367 17.5625 80.3086 17.2969C80.3867 17.1875 80.4258 17.0625 80.4258 16.9219C80.4258 16.75 80.3867 16.5859 80.3086 16.4297C80.2305 16.2734 80.1914 16.1016 80.1914 15.9141C80.1914 15.7891 80.1992 15.6953 80.2148 15.6328C80.043 15.8203 79.918 16.0625 79.8398 16.3594C79.7773 16.6406 79.7461 16.8984 79.7461 17.1328C79.7461 17.3203 79.7695 17.4922 79.8164 17.6484C79.6602 17.8672 79.5586 18.1406 79.5117 18.4688C79.4805 18.7969 79.4648 19.0859 79.4648 19.3359C79.4648 19.6484 79.4883 19.9531 79.5352 20.25C79.2852 20.5 79.1602 20.8047 79.1602 21.1641C79.1602 21.3672 79.207 21.5469 79.3008 21.7031C79.3008 21.7656 79.2852 21.8125 79.2539 21.8438C79.2227 21.875 79.1836 21.8984 79.1367 21.9141C79.1055 21.9297 79.0664 21.9531 79.0195 21.9844C78.9883 22 78.9727 22.0391 78.9727 22.1016C78.9727 22.1797 78.9727 22.2656 78.9727 22.3594C78.9883 22.4531 78.9961 22.5469 78.9961 22.6406C78.9961 22.8594 78.9883 23.0859 78.9727 23.3203C78.957 23.5547 78.9492 23.7812 78.9492 24C78.9492 24.4531 78.9883 24.7812 79.0664 24.9844C79.1602 25.1719 79.2695 25.3125 79.3945 25.4062C79.5352 25.5 79.6836 25.5938 79.8398 25.6875C79.9961 25.7812 80.1523 25.9609 80.3086 26.2266C80.2617 26.3672 80.1758 26.4844 80.0508 26.5781C79.9414 26.6562 79.832 26.7422 79.7227 26.8359C79.6289 26.9141 79.543 27.0078 79.4648 27.1172C79.3867 27.2266 79.3555 27.3828 79.3711 27.5859H79.2539C79.0508 27.5859 78.8555 27.6172 78.668 27.6797C78.4805 27.7422 78.2852 27.7734 78.082 27.7734C78.0352 27.7734 77.9883 27.7656 77.9414 27.75C77.8945 27.75 77.8477 27.75 77.8008 27.75L77.5664 27.6094C77.4883 27.5625 77.4102 27.5391 77.332 27.5391C77.2539 27.5391 77.1523 27.5547 77.0273 27.5859C76.8086 26.8828 76.6367 26.1562 76.5117 25.4062C76.4023 24.6562 76.3477 23.9219 76.3477 23.2031C76.3477 23.125 76.3633 23.0469 76.3945 22.9688C76.4414 22.875 76.5039 22.8438 76.582 22.875V22.4297C76.582 21.9453 76.6211 21.4766 76.6992 21.0234C76.793 20.5547 76.8398 20.0703 76.8398 19.5703C76.8398 19.4297 76.832 19.2891 76.8164 19.1484C76.8164 19.0078 76.8086 18.875 76.793 18.75C76.8711 18.4844 76.9492 18.2188 77.0273 17.9531C77.1211 17.6719 77.168 17.3828 77.168 17.0859C77.168 16.9609 77.1445 16.8125 77.0977 16.6406C77.2227 16.5469 77.3164 16.4297 77.3789 16.2891C77.4414 16.1328 77.4883 15.9688 77.5195 15.7969C77.5508 15.6094 77.5742 15.4297 77.5898 15.2578C77.6055 15.0859 77.6211 14.9297 77.6367 14.7891C77.793 14.4766 77.8789 14.1406 77.8945 13.7812C77.9102 13.4219 77.9883 13.0859 78.1289 12.7734C78.1133 12.7109 78.1055 12.6016 78.1055 12.4453C78.1055 12.1328 78.1523 11.8203 78.2461 11.5078C78.3555 11.1797 78.5664 10.9297 78.8789 10.7578C79.1602 10.8672 79.4883 10.9219 79.8633 10.9219C80.2227 10.9219 80.5664 10.8672 80.8945 10.7578C80.9883 10.7891 81.0742 10.8281 81.1523 10.875C81.2305 10.9062 81.3086 10.9453 81.3867 10.9922C81.4805 11.0234 81.5742 11.0547 81.668 11.0859C81.7617 11.1016 81.8711 11.1016 81.9961 11.0859C82.1523 11.5391 82.2852 12 82.3945 12.4688C82.5195 12.9375 82.6133 13.4141 82.6758 13.8984C82.707 14.1016 82.7148 14.3203 82.6992 14.5547C82.6992 14.7891 82.7148 15.0078 82.7461 15.2109C82.7617 15.3359 82.8008 15.4531 82.8633 15.5625C82.9258 15.6562 82.9883 15.7656 83.0508 15.8906C83.1133 16.0156 83.1602 16.1562 83.1914 16.3125C83.2383 16.4688 83.2539 16.6641 83.2383 16.8984C83.4102 17.3047 83.5977 17.6953 83.8008 18.0703C84.0195 18.4297 84.2539 18.7891 84.5039 19.1484C84.6445 19.1953 84.7695 19.2578 84.8789 19.3359C84.9883 19.3984 85.0586 19.5078 85.0898 19.6641C85.2305 19.6641 85.3555 19.6875 85.4648 19.7344L85.8633 19.8516C86.457 19.6641 87.0039 19.4141 87.5039 19.1016C88.0195 18.7891 88.5586 18.5234 89.1211 18.3047C89.8086 17.6328 90.4023 16.8906 90.9023 16.0781C91.4023 15.25 91.9023 14.4297 92.4023 13.6172V13.1016C92.4961 13.0547 92.5742 13 92.6367 12.9375C92.7148 12.8594 92.8086 12.8047 92.918 12.7734C92.9336 12.5859 92.9727 12.4062 93.0352 12.2344C93.1133 12.0469 93.1914 11.875 93.2695 11.7188C93.3633 11.5469 93.4414 11.3828 93.5039 11.2266C93.5664 11.0547 93.5977 10.875 93.5977 10.6875C93.5977 10.5781 93.5898 10.4844 93.5742 10.4062C93.8086 10.1719 94.0898 10.0547 94.418 10.0547C94.7305 10.0547 95.043 10.1328 95.3555 10.2891C95.6836 10.4297 95.9883 10.5625 96.2695 10.6875C96.4414 11.0625 96.5664 11.4609 96.6445 11.8828C96.7383 12.2891 96.8008 12.7109 96.832 13.1484C96.8633 13.5859 96.8789 14.0234 96.8789 14.4609V16.125C96.8633 16.25 96.8164 16.3438 96.7383 16.4062C96.6758 16.4531 96.6289 16.5312 96.5977 16.6406V16.875C96.5977 16.9531 96.5898 17.0312 96.5742 17.1094C96.5742 17.4375 96.5352 17.7812 96.457 18.1406C96.3789 18.5938 96.2773 19.0547 96.1523 19.5234C96.043 19.9766 95.9883 20.4375 95.9883 20.9062C95.9883 21.0781 95.9961 21.25 96.0117 21.4219C96.0273 21.5938 96.0586 21.7656 96.1055 21.9375C96.0273 22.0781 95.9883 22.2578 95.9883 22.4766C95.9883 22.7266 96.0273 22.9609 96.1055 23.1797C96.1992 23.3828 96.3086 23.5859 96.4336 23.7891C96.6523 23.7891 96.8711 23.7812 97.0898 23.7656C97.3086 23.75 97.5352 23.7422 97.7695 23.7422C97.9883 23.7422 98.1914 23.7656 98.3789 23.8125C98.5664 23.8438 98.7617 23.9219 98.9648 24.0469ZM104.801 23.7891C104.723 23.9141 104.629 24.0312 104.52 24.1406C104.41 24.2344 104.309 24.3359 104.215 24.4453C104.105 24.4922 103.98 24.5156 103.84 24.5156C103.715 24.5156 103.59 24.5156 103.465 24.5156C103.355 24.5 103.246 24.5 103.137 24.5156C103.043 24.5156 102.965 24.5469 102.902 24.6094C102.777 24.5781 102.684 24.5234 102.621 24.4453C102.559 24.3516 102.449 24.2969 102.293 24.2812C102.23 24.2656 102.168 24.2656 102.105 24.2812C101.871 24.0156 101.652 23.7344 101.449 23.4375C101.262 23.1406 101.082 22.8594 100.91 22.5938C100.895 22.0156 100.848 21.4297 100.77 20.8359C100.754 20.6953 100.73 20.5547 100.699 20.4141C100.668 20.2734 100.645 20.1406 100.629 20.0156C100.629 19.8594 100.637 19.7109 100.652 19.5703C100.684 19.4141 100.707 19.2734 100.723 19.1484C100.785 18.6953 100.855 18.25 100.934 17.8125C101.012 17.375 101.082 16.9297 101.145 16.4766C101.207 16.0703 101.238 15.6484 101.238 15.2109C101.238 14.7578 101.168 14.3359 101.027 13.9453L101.004 13.8281C101.035 13.7031 101.066 13.6016 101.098 13.5234C101.145 13.4297 101.176 13.3281 101.191 13.2188C101.223 13.0469 101.184 12.9219 101.074 12.8438C101.121 12.7188 101.199 12.6406 101.309 12.6094C101.418 12.5625 101.48 12.4688 101.496 12.3281C101.512 12.2656 101.512 12.2031 101.496 12.1406C101.621 12.0938 101.746 12.0547 101.871 12.0234C102.012 11.9766 102.145 11.9688 102.27 12C102.473 12.0312 102.652 12.1016 102.809 12.2109C102.965 12.3047 103.113 12.4141 103.254 12.5391C103.504 13.2891 103.605 14.0859 103.559 14.9297C103.512 15.7578 103.434 16.5938 103.324 17.4375C103.215 18.2812 103.145 19.1094 103.113 19.9219C103.082 20.7188 103.207 21.4609 103.488 22.1484L103.535 22.1719C103.613 22.1875 103.676 22.1641 103.723 22.1016C103.77 22.0234 103.832 21.9922 103.91 22.0078C103.973 22.0391 104.012 22.0547 104.027 22.0547C104.09 22.3672 104.191 22.6641 104.332 22.9453C104.473 23.2266 104.629 23.5078 104.801 23.7891ZM127.207 11.9297C127.145 12.1328 127.043 12.3203 126.902 12.4922L126.504 12.9844C126.379 13.1406 126.27 13.3125 126.176 13.5C126.098 13.6719 126.074 13.875 126.105 14.1094C126.074 14.1094 126.035 14.1094 125.988 14.1094C125.941 14.0938 125.902 14.0859 125.871 14.0859C125.621 14.0859 125.426 14.1484 125.285 14.2734C125.16 14.3828 124.988 14.4766 124.77 14.5547C124.738 14.4609 124.699 14.375 124.652 14.2969C124.605 14.2031 124.535 14.1406 124.441 14.1094C124.066 14.1875 123.691 14.25 123.316 14.2969C122.941 14.3281 122.566 14.375 122.191 14.4375C122.02 14.4688 121.848 14.5156 121.676 14.5781C121.504 14.625 121.324 14.6719 121.137 14.7188C121.043 14.75 120.941 14.7656 120.832 14.7656C120.723 14.75 120.613 14.75 120.504 14.7656C120.129 14.7812 119.723 14.8125 119.285 14.8594C118.848 14.8906 118.457 15.0078 118.113 15.2109C117.957 15.1797 117.793 15.1562 117.621 15.1406C117.449 15.125 117.277 15.1172 117.105 15.1172C116.73 15.1172 116.316 15.1562 115.863 15.2344C115.426 15.2969 115.035 15.4297 114.691 15.6328C114.613 15.6016 114.527 15.5781 114.434 15.5625C114.355 15.5469 114.262 15.5391 114.152 15.5391C114.121 15.5391 114.098 15.5469 114.082 15.5625C114.066 15.5625 114.043 15.5625 114.012 15.5625C113.996 15.7031 114.012 15.8438 114.059 15.9844C114.121 16.1094 114.223 16.2109 114.363 16.2891C114.301 16.4609 114.27 16.6484 114.27 16.8516C114.27 17.1172 114.285 17.3828 114.316 17.6484C114.363 17.9141 114.387 18.1797 114.387 18.4453C114.387 18.7422 114.348 18.9766 114.27 19.1484C114.426 19.6172 114.504 20.1172 114.504 20.6484C114.504 20.8359 114.488 21.0234 114.457 21.2109C114.441 21.3828 114.434 21.5703 114.434 21.7734C114.434 21.9453 114.496 22.0859 114.621 22.1953C114.746 22.2891 114.809 22.4219 114.809 22.5938C114.809 22.6562 114.793 22.7188 114.762 22.7812C114.98 22.7344 115.191 22.6719 115.395 22.5938C115.598 22.5 115.809 22.4531 116.027 22.4531C116.152 22.4531 116.27 22.4766 116.379 22.5234C116.504 22.5703 116.613 22.6328 116.707 22.7109C116.691 22.7891 116.676 22.875 116.66 22.9688C116.66 23.0625 116.66 23.1562 116.66 23.25C116.66 23.4219 116.66 23.5859 116.66 23.7422C116.676 23.8828 116.691 24.0391 116.707 24.2109C116.582 24.4297 116.434 24.625 116.262 24.7969C116.105 24.9688 115.996 25.1875 115.934 25.4531C115.699 25.4531 115.488 25.5078 115.301 25.6172C115.129 25.7109 114.965 25.8203 114.809 25.9453C114.652 26.0547 114.496 26.1641 114.34 26.2734C114.184 26.3672 114.012 26.4141 113.824 26.4141C113.59 26.4141 113.426 26.3828 113.332 26.3203C113.238 26.2422 113.168 26.1641 113.121 26.0859C113.074 26.0078 113.027 25.9375 112.98 25.875C112.949 25.8125 112.871 25.7891 112.746 25.8047C112.715 25.6016 112.652 25.4141 112.559 25.2422C112.465 25.0547 112.363 24.875 112.254 24.7031C112.16 24.5312 112.059 24.3594 111.949 24.1875C111.855 24 111.785 23.8125 111.738 23.625C111.645 23.2188 111.605 22.7969 111.621 22.3594C111.637 21.9219 111.566 21.5 111.41 21.0938C111.441 20.875 111.465 20.6562 111.48 20.4375C111.496 20.2031 111.504 19.9766 111.504 19.7578C111.504 19.3203 111.488 18.8906 111.457 18.4688C111.441 18.0312 111.426 17.5859 111.41 17.1328C111.301 16.9922 111.23 16.8359 111.199 16.6641C111.184 16.4766 111.168 16.2969 111.152 16.125C111.105 16.0781 111.051 16.0312 110.988 15.9844C110.941 15.9375 110.91 15.875 110.895 15.7969C110.77 15.7656 110.676 15.75 110.613 15.75C110.395 15.75 110.207 15.8047 110.051 15.9141C109.91 16.0078 109.777 16.0547 109.652 16.0547C109.527 16.0547 109.41 16.0391 109.301 16.0078C109.191 15.9766 109.082 15.9609 108.973 15.9609C108.879 15.9609 108.824 15.9844 108.809 16.0312C108.809 16.0625 108.777 16.0938 108.715 16.125C108.668 16.1562 108.559 16.1875 108.387 16.2188C108.215 16.25 108.02 16.2812 107.801 16.3125C107.598 16.3281 107.395 16.3438 107.191 16.3594C107.004 16.375 106.879 16.3828 106.816 16.3828C106.566 16.3828 106.379 16.3359 106.254 16.2422C106.113 16.1328 105.949 16.0156 105.762 15.8906C105.793 15.7969 105.809 15.7344 105.809 15.7031C105.809 15.5469 105.762 15.4219 105.668 15.3281C105.574 15.2188 105.527 15.125 105.527 15.0469C105.527 14.875 105.598 14.7422 105.738 14.6484C105.863 14.5547 105.934 14.4062 105.949 14.2031C106.309 14.0469 106.676 13.9297 107.051 13.8516C107.426 13.7734 107.809 13.7109 108.199 13.6641C108.59 13.6172 108.973 13.5625 109.348 13.5C109.738 13.4375 110.121 13.3359 110.496 13.1953C110.605 13.2109 110.707 13.2266 110.801 13.2422C110.91 13.2422 111.02 13.2422 111.129 13.2422C111.598 13.2422 112.059 13.1953 112.512 13.1016C112.98 12.9922 113.457 12.9375 113.941 12.9375C114.066 12.9375 114.191 12.9453 114.316 12.9609C114.441 12.9766 114.566 13 114.691 13.0312C115.316 12.9375 115.934 12.8359 116.543 12.7266C117.168 12.6172 117.809 12.5234 118.465 12.4453C118.777 12.4141 119.082 12.3906 119.379 12.375C119.691 12.3438 120.004 12.3047 120.316 12.2578C120.426 12.2422 120.504 12.2188 120.551 12.1875C120.613 12.1406 120.645 12.0547 120.645 11.9297C120.785 11.9922 120.941 12.0234 121.113 12.0234C121.379 12.0234 121.637 11.9766 121.887 11.8828C122.137 11.7891 122.395 11.7422 122.66 11.7422C122.723 11.7422 122.777 11.75 122.824 11.7656C122.871 11.7656 122.918 11.7656 122.965 11.7656C123.074 11.7656 123.129 11.7188 123.129 11.625C123.145 11.5156 123.223 11.4453 123.363 11.4141C123.473 11.3828 123.629 11.3594 123.832 11.3438C124.035 11.3281 124.246 11.3125 124.465 11.2969C124.699 11.2656 124.91 11.2344 125.098 11.2031C125.301 11.1562 125.449 11.0938 125.543 11.0156L125.707 10.7578C125.988 10.7734 126.191 10.8984 126.316 11.1328C126.457 11.3516 126.535 11.5938 126.551 11.8594C126.613 11.9219 126.699 11.9531 126.809 11.9531C126.934 11.9375 127.043 11.9297 127.137 11.9297H127.207Z" fill="#212529"/>
</svg>
